<svg viewBox="-768 -337 1536 674" width="1536" height="674" style="background-color: rgb(255, 255, 255);" xmlns="http://www.w3.org/2000/svg"><path d="M-216.29956229833482,-0.3399920871524493L-237.3329704125615,-3.285843024811428M-237.3329704125615,-106.59182486016222L-237.3329704125615,-3.285843024811428M-237.3329704125615,-3.285843024811428L-277.0731412936334,34.54626199761162M-216.29956229833482,-103.64597392250325L-216.29956229833482,-0.3399920871524493M-216.29956229833482,-0.3399920871524493L-256.03973317940665,37.492112935270605" style="fill:none;stroke:rgb(0,0,0);stroke-width:1;stroke-linecap:round"></path><path d="M-216.29956229833482,-0.3399920871524472L-237.3329704125615,-3.2858430248114257L-237.3329704125615,-106.59182486016222zM-216.29956229833482,-103.64597392250325L-216.29956229833482,-0.3399920871524472L-237.3329704125615,-106.59182486016222zM-277.0731412936334,34.54626199761162L-237.3329704125615,-3.2858430248114257L-216.29956229833482,-0.3399920871524472z" style="fill:rgb(238,238,238); fill-opacity: 0.4"></path><path d="M-95.77852704897414,8.766664249772013L-183.1649491389911,-3.472311576424182M-183.1649491389911,-79.97057425191656L-183.1649491389911,-3.472311576424182M-183.1649491389911,-3.472311576424182L-212.59261612224896,24.542429256151582M-216.29956229833482,-103.64597392250325L-237.3329704125615,-106.59182486016222M-237.3329704125615,-106.59182486016222L-277.0731412936334,-68.75971983773917M-216.29956229833482,-103.64597392250325L-256.03973317940665,-65.8138689000802" style="fill:none;stroke:rgb(0,0,0);stroke-width:1;stroke-linecap:round"></path><path d="M-256.03973317940665,37.492112935270605L-216.29956229833482,-0.3399920871524472L-216.29956229833482,-103.64597392250325zM-237.3329704125615,-106.59182486016222L-237.3329704125615,-3.2858430248114257L-277.0731412936334,-68.75971983773917zM-95.77852704897414,8.766664249772013L-183.16494913899112,-3.47231157642418L-183.16494913899112,-79.97057425191656z" style="fill:rgb(238,238,238); fill-opacity: 0.4"></path><path d="M-95.77852704897414,-67.73159842572036L-183.1649491389911,-79.97057425191656M-183.1649491389911,-79.97057425191656L-212.59261612224896,-51.95583341934079" style="fill:none;stroke:rgb(0,0,0);stroke-width:1;stroke-linecap:round"></path><path d="M-256.03973317940665,37.492112935270605L-277.0731412936334,34.54626199761162L-216.29956229833482,-0.3399920871524472z" style="fill:rgb(238,238,238); fill-opacity: 0.4"></path><path d="M-95.77852704897414,-67.73159842572036L-95.77852704897414,8.766664249772013M-95.77852704897414,8.766664249772013L-125.20619403223202,36.781405082347774" style="fill:none;stroke:rgb(0,0,0);stroke-width:1;stroke-linecap:round"></path><path d="M-212.592616122249,24.542429256151582L-183.16494913899112,-3.47231157642418L-95.77852704897414,8.766664249772013zM-256.03973317940665,-65.8138689000802L-216.29956229833482,-103.64597392250325L-237.3329704125615,-106.59182486016222zM-237.3329704125615,-3.2858430248114257L-277.0731412936334,34.54626199761162L-277.0731412936334,-68.75971983773917z" style="fill:rgb(238,238,238); fill-opacity: 0.4"></path><path d="M-239.98447473990714,-32.00042569421132L-261.01788285413386,-34.9462766318703M-261.01788285413386,-55.94480135869016L-261.01788285413386,-34.9462766318703M-261.01788285413386,-34.9462766318703L-269.0956818941181,-27.256321232703375" style="fill:none;stroke:rgb(0,0,0);stroke-width:1;stroke-linecap:round"></path><path d="M-95.77852704897414,-67.73159842572036L-95.77852704897414,8.766664249772013L-183.16494913899112,-79.97057425191656zM-183.16494913899112,-79.97057425191656L-183.16494913899112,-3.47231157642418L-212.592616122249,-51.955833419340784z" style="fill:rgb(238,238,238); fill-opacity: 0.4"></path><path d="M-239.98447473990714,-32.00042569421132L-261.01788285413386,-34.946276631870305L-261.01788285413386,-55.94480135869016z" style="fill:rgb(153,221,255); fill-opacity: 0.4"></path><path d="M-239.98447473990714,-52.99895042103118L-239.98447473990714,-32.00042569421132M-239.98447473990714,-32.00042569421132L-248.06227377989146,-24.310470295044396M-239.98447350412636,-52.99895013241947L-239.98447350412636,-32.000425633164994M-239.98447350412636,-32.000425633164994L-248.0622728942738,-24.310469900647483M-239.98447350412636,-32.000425633164994L-203.69447907829826,-31.84442724885434M-239.98447473990714,-52.99895042103118L-261.01788285413386,-55.94480135869016M-261.01788285413386,-55.94480135869016L-269.0956818941181,-48.25484595952324" style="fill:none;stroke:rgb(0,0,0);stroke-width:1;stroke-linecap:round"></path><path d="M-269.0956818941181,-27.256321232703378L-261.01788285413386,-34.946276631870305L-239.98447473990714,-32.00042569421132zM-239.98447473990714,-52.99895042103118L-239.98447473990714,-32.00042569421132L-261.01788285413386,-55.94480135869016zM-261.01788285413386,-55.94480135869016L-261.01788285413386,-34.946276631870305L-269.0956818941181,-48.25484595952324z" style="fill:rgb(153,221,255); fill-opacity: 0.4"></path><path d="M46.06474021071683,24.6944318268461L-60.100082150547564,9.825432005186551M-60.100082150547564,-53.09067270244208L-60.100082150547564,9.825432005186551M-60.100082150547564,9.825432005186551L-84.30290862614845,32.86619536286331M-112.25753490905251,-14.67625344160217L-199.64395699906947,-26.915229267798367M-199.64395699906947,-36.460013234534664L-199.64395699906947,-26.915229267798367M-199.64395699906947,-26.915229267798367L-203.315683835426,-23.41979499544976M-239.98447473990714,-52.99895042103118L-248.06227377989146,-45.308995021864256M-239.98447350412636,-52.99895013241947L-248.0622728942738,-45.308994399901955M-239.98447350412636,-52.99895013241947L-203.69447907829826,-31.84442724885434" style="fill:none;stroke:rgb(0,0,0);stroke-width:1;stroke-linecap:round"></path><path d="M-261.01788285413386,-34.946276631870305L-269.0956818941181,-27.256321232703378L-269.0956818941181,-48.25484595952324z" style="fill:rgb(153,221,255); fill-opacity: 0.4"></path><path d="M-239.98447492977323,-52.99895044762303L-239.98447492977323,-32.00042572080317L-248.06227396975754,-24.310470321636245z" style="fill:rgb(255,187,187); fill-opacity: 0.4"></path><path d="M-248.06227377989146,-24.3104702950444L-239.98447473990714,-32.00042569421132L-239.98447473990714,-52.99895042103118z" style="fill:rgb(153,221,255); fill-opacity: 0.4"></path><path d="M-239.98447492977323,-32.00042572080317L-239.98447492977323,-52.99895044762303L-203.69448031170475,-31.84442801696787z" style="fill:rgb(255,187,187); fill-opacity: 0.4"></path><path d="M-277.0731412936334,-68.75971983773917L-277.0731412936334,34.54626199761162M-277.0731412936334,34.54626199761162L-256.03973317940665,37.492112935270605" style="fill:none;stroke:rgb(0,0,0);stroke-width:1;stroke-linecap:round"></path><path d="M-183.16494913899112,-3.47231157642418L-212.592616122249,24.542429256151582L-212.592616122249,-51.955833419340784z" style="fill:rgb(238,238,238); fill-opacity: 0.4"></path><path d="M-248.06227377989146,-24.3104702950444L-269.0956818941181,-27.256321232703378L-239.98447473990714,-32.00042569421132z" style="fill:rgb(153,221,255); fill-opacity: 0.4"></path><path d="M-112.25753490905251,-24.221037408338475L-199.64395699906947,-36.460013234534664M-199.64395699906947,-36.460013234534664L-203.315683835426,-32.96457896218607M-269.0956818941181,-48.25484595952324L-269.0956818941181,-27.256321232703375M-269.0956818941181,-27.256321232703375L-248.06227377989146,-24.310470295044396" style="fill:none;stroke:rgb(0,0,0);stroke-width:1;stroke-linecap:round"></path><path d="M-248.06227377989146,-45.308995021864256L-239.98447473990714,-52.99895042103118L-261.01788285413386,-55.94480135869016z" style="fill:rgb(153,221,255); fill-opacity: 0.4"></path><path d="M-256.03973317940665,-65.8138689000802L-256.03973317940665,37.492112935270605L-216.29956229833482,-103.64597392250325z" style="fill:rgb(238,238,238); fill-opacity: 0.4"></path><path d="M-199.64395699906953,-36.460013234534664L-199.64395699906953,-26.915229267798367L-203.31568383542603,-32.96457896218607z" style="fill:rgb(153,221,255); fill-opacity: 0.4"></path><path d="M-248.06227396975754,-24.310470321636245L-239.98447492977323,-32.00042572080317L-203.69448031170475,-31.84442801696787z" style="fill:rgb(255,187,187); fill-opacity: 0.4"></path><path d="M-95.77852704897414,-67.73159842572036L-125.20619403223202,-39.716857593144596" style="fill:none;stroke:rgb(0,0,0);stroke-width:1;stroke-linecap:round"></path><path d="M-199.64395699906953,-26.915229267798367L-203.31568383542603,-23.41979499544976L-203.31568383542603,-32.96457896218607zM-269.0956818941181,-48.25484595952324L-248.06227377989146,-45.308995021864256L-261.01788285413386,-55.94480135869016z" style="fill:rgb(153,221,255); fill-opacity: 0.4"></path><path d="M-203.315683835426,-32.96457896218607L-203.315683835426,-23.41979499544976M-203.315683835426,-23.41979499544976L-115.92926174540904,-11.18081916925357M-256.03973317940665,-65.8138689000802L-256.03973317940665,37.492112935270605" style="fill:none;stroke:rgb(0,0,0);stroke-width:1;stroke-linecap:round"></path><path d="M-125.20619403223199,36.781405082347774L-95.77852704897414,8.766664249772013L-95.77852704897414,-67.73159842572036z" style="fill:rgb(238,238,238); fill-opacity: 0.4"></path><path d="M-239.98447492977323,-52.99895044762303L-248.06227396975754,-24.310470321636245L-248.06227396975754,-45.308995048456104z" style="fill:rgb(255,187,187); fill-opacity: 0.4"></path><path d="M-248.06227377989146,-45.308995021864256L-248.06227377989146,-24.3104702950444L-239.98447473990714,-52.99895042103118z" style="fill:rgb(153,221,255); fill-opacity: 0.4"></path><path d="M-239.98447492977323,-52.99895044762303L-248.06227396975754,-45.308995048456104L-203.69448031170475,-31.84442801696787z" style="fill:rgb(255,187,187); fill-opacity: 0.4"></path><path d="M-248.06227377989146,-45.308995021864256L-248.06227377989146,-24.310470295044396M-248.0622728942738,-24.310469900647483L-248.0622728942738,-45.308994399901955M-248.0622728942738,-24.310469900647483L-203.69447907829826,-31.84442724885434" style="fill:none;stroke:rgb(0,0,0);stroke-width:1;stroke-linecap:round"></path><path d="M-112.25753490905251,-14.67625344160217L-199.64395699906953,-26.915229267798367L-199.64395699906953,-36.460013234534664zM-269.0956818941181,-27.256321232703378L-248.06227377989146,-24.3104702950444L-248.06227377989146,-45.308995021864256zM-269.0956818941181,-48.25484595952324L-269.0956818941181,-27.256321232703378L-248.06227377989146,-45.308995021864256z" style="fill:rgb(153,221,255); fill-opacity: 0.4"></path><path d="M-269.0956818941181,-48.25484595952324L-248.06227377989146,-45.308995021864256M-203.315683835426,-32.96457896218607L-115.92926174540904,-20.725603135989868" style="fill:none;stroke:rgb(0,0,0);stroke-width:1;stroke-linecap:round"></path><path d="M-277.0731412936334,-68.75971983773917L-256.03973317940665,-65.8138689000802L-237.3329704125615,-106.59182486016222zM-125.20619403223199,36.781405082347774L-212.592616122249,24.542429256151582L-95.77852704897414,8.766664249772013z" style="fill:rgb(238,238,238); fill-opacity: 0.4"></path><path d="M-248.0622728942738,-45.308994399901955L-203.69447907829826,-31.84442724885434" style="fill:none;stroke:rgb(0,0,0);stroke-width:1;stroke-linecap:round"></path><path d="M-203.31568383542603,-23.41979499544976L-199.64395699906953,-26.915229267798367L-112.25753490905251,-14.67625344160217z" style="fill:rgb(153,221,255); fill-opacity: 0.4"></path><path d="M-248.06227396975754,-45.308995048456104L-248.06227396975754,-24.310470321636245L-203.69448031170475,-31.84442801696787z" style="fill:rgb(255,187,187); fill-opacity: 0.4"></path><path d="M-212.59261612224896,-51.95583341934079L-212.59261612224896,24.542429256151582M-212.59261612224896,24.542429256151582L-125.20619403223202,36.781405082347774" style="fill:none;stroke:rgb(0,0,0);stroke-width:1;stroke-linecap:round"></path><path d="M-125.20619403223199,-39.7168575931446L-95.77852704897414,-67.73159842572036L-183.16494913899112,-79.97057425191656zM46.06474021071682,24.694431826846095L-60.100082150547564,9.825432005186551L-60.100082150547564,-53.090672702442085z" style="fill:rgb(238,238,238); fill-opacity: 0.4"></path><path d="M-203.31568383542603,-32.96457896218607L-115.92926174540904,-20.725603135989868L-199.64395699906953,-36.460013234534664z" style="fill:rgb(153,221,255); fill-opacity: 0.4"></path><path d="M-277.0731412936334,34.54626199761162L-256.03973317940665,37.492112935270605L-256.03973317940665,-65.8138689000802z" style="fill:rgb(238,238,238); fill-opacity: 0.4"></path><path d="M-203.31568383542603,-32.96457896218607L-203.31568383542603,-23.41979499544976L-115.92926174540904,-20.725603135989868z" style="fill:rgb(153,221,255); fill-opacity: 0.4"></path><path d="M46.06474021071683,-38.22167288078253L-60.100082150547564,-53.09067270244208M-60.100082150547564,-53.09067270244208L-84.30290862614845,-30.04990934476532" style="fill:none;stroke:rgb(0,0,0);stroke-width:1;stroke-linecap:round"></path><path d="M-112.25753490905251,-24.221037408338475L-112.25753490905251,-14.67625344160217L-199.64395699906953,-36.460013234534664zM-115.92926174540904,-11.180819169253569L-203.31568383542603,-23.41979499544976L-112.25753490905251,-14.67625344160217zM-115.92926174540904,-20.725603135989868L-112.25753490905251,-24.221037408338475L-199.64395699906953,-36.460013234534664z" style="fill:rgb(153,221,255); fill-opacity: 0.4"></path><path d="M-84.30290862614845,32.8661953628633L-60.100082150547564,9.825432005186551L46.06474021071682,24.694431826846095z" style="fill:rgb(238,238,238); fill-opacity: 0.4"></path><path d="M-203.31568383542603,-23.41979499544976L-115.92926174540904,-11.180819169253569L-115.92926174540904,-20.725603135989868z" style="fill:rgb(153,221,255); fill-opacity: 0.4"></path><path d="M-112.25753490905251,-24.221037408338475L-112.25753490905251,-14.67625344160217M-112.25753490905251,-14.67625344160217L-115.92926174540904,-11.18081916925357M-112.2575332770123,-24.221037443518664L-112.2575332770123,-14.676253192325632M-112.2575332770123,-14.676253192325632L-115.92925993828722,-11.180819086652324M-112.2575332770123,-14.676253192325632L-75.16317188243855,-11.942876979364632" style="fill:none;stroke:rgb(0,0,0);stroke-width:1;stroke-linecap:round"></path><path d="M-277.0731412936334,-68.75971983773917L-277.0731412936334,34.54626199761162L-256.03973317940665,-65.8138689000802zM-212.592616122249,-51.955833419340784L-125.20619403223199,-39.7168575931446L-183.16494913899112,-79.97057425191656zM-60.100082150547564,-53.090672702442085L-60.100082150547564,9.825432005186551L-84.30290862614845,-30.049909344765325z" style="fill:rgb(238,238,238); fill-opacity: 0.4"></path><path d="M-112.25753490905251,-24.221037408338475L-115.92926174540904,-20.725603135989868M-112.2575332770123,-24.221037443518664L-115.92925993828722,-20.725603337845353M-112.2575332770123,-24.221037443518664L-75.16317188243855,-11.942876979364632" style="fill:none;stroke:rgb(0,0,0);stroke-width:1;stroke-linecap:round"></path><path d="M-112.2575351900822,-24.22103744769831L-112.2575351900822,-14.676253480962007L-115.92926202643872,-11.180819208613405z" style="fill:rgb(255,187,187); fill-opacity: 0.4"></path><path d="M-115.92926174540904,-11.180819169253569L-112.25753490905251,-14.67625344160217L-112.25753490905251,-24.221037408338475z" style="fill:rgb(153,221,255); fill-opacity: 0.4"></path><path d="M46.06474021071683,-38.22167288078253L46.06474021071683,24.6944318268461M46.06474021071683,24.6944318268461L21.86191373511594,47.735195184522844" style="fill:none;stroke:rgb(0,0,0);stroke-width:1;stroke-linecap:round"></path><path d="M-112.2575351900822,-14.676253480962007L-112.2575351900822,-24.22103744769831L-75.16317388123258,-11.942877022087455zM-112.2575351900822,-24.22103744769831L-115.92926202643872,-11.180819208613405L-115.92926202643872,-20.725603175349704z" style="fill:rgb(255,187,187); fill-opacity: 0.4"></path><path d="M-115.92926174540904,-20.725603135989868L-115.92926174540904,-11.180819169253569L-112.25753490905251,-24.221037408338475z" style="fill:rgb(153,221,255); fill-opacity: 0.4"></path><path d="M-115.92926174540904,-20.725603135989868L-115.92926174540904,-11.18081916925357M-115.92925993828722,-11.180819086652324L-115.92925993828722,-20.725603337845353M-115.92925993828722,-11.180819086652324L-75.16317188243855,-11.942876979364632" style="fill:none;stroke:rgb(0,0,0);stroke-width:1;stroke-linecap:round"></path><path d="M-115.92926202643872,-11.180819208613405L-112.2575351900822,-14.676253480962007L-75.16317388123258,-11.942877022087455z" style="fill:rgb(255,187,187); fill-opacity: 0.4"></path><path d="M46.06474021071682,-38.221672880782535L46.06474021071682,24.694431826846095L-60.100082150547564,-53.090672702442085z" style="fill:rgb(238,238,238); fill-opacity: 0.4"></path><path d="M29.318765159185066,36.80664542234657L-76.84605720207932,21.937645600687027M-76.84605720207932,16.210775220645246L-76.84605720207932,21.937645600687027M-76.84605720207932,21.937645600687027L-79.04909330389323,24.03490616409619M-277.0731412936334,-68.75971983773917L-256.03973317940665,-65.8138689000802" style="fill:none;stroke:rgb(0,0,0);stroke-width:1;stroke-linecap:round"></path><path d="M-112.2575351900822,-24.22103744769831L-115.92926202643872,-20.725603175349704L-75.16317388123258,-11.942877022087455z" style="fill:rgb(255,187,187); fill-opacity: 0.4"></path><path d="M29.318765159185066,31.07977504230479L-76.84605720207932,16.210775220645246M-76.84605720207932,16.210775220645246L-79.04909330389323,18.308035784054407" style="fill:none;stroke:rgb(0,0,0);stroke-width:1;stroke-linecap:round"></path><path d="M-125.20619403223199,-39.7168575931446L-125.20619403223199,36.781405082347774L-95.77852704897414,-67.73159842572036z" style="fill:rgb(238,238,238); fill-opacity: 0.4"></path><path d="M-115.92925993828722,-20.725603337845353L-75.16317188243855,-11.942876979364632" style="fill:none;stroke:rgb(0,0,0);stroke-width:1;stroke-linecap:round"></path><path d="M-76.84605720207932,16.21077522064525L-76.84605720207932,21.937645600687027L-79.04909330389323,18.30803578405441z" style="fill:rgb(153,221,255); fill-opacity: 0.4"></path><path d="M-115.92926202643872,-20.725603175349704L-115.92926202643872,-11.180819208613405L-75.16317388123258,-11.942877022087455z" style="fill:rgb(255,187,187); fill-opacity: 0.4"></path><path d="M-76.84605720207932,21.937645600687027L-79.04909330389323,24.034906164096192L-79.04909330389323,18.30803578405441z" style="fill:rgb(153,221,255); fill-opacity: 0.4"></path><path d="M-60.100082150547564,9.825432005186551L-84.30290862614845,32.8661953628633L-84.30290862614845,-30.049909344765325z" style="fill:rgb(238,238,238); fill-opacity: 0.4"></path><path d="M-79.04909330389323,18.308035784054407L-79.04909330389323,24.03490616409619M-79.04909330389323,24.03490616409619L27.11572905737116,38.90390598575573M-212.59261612224896,-51.95583341934079L-125.20619403223202,-39.716857593144596" style="fill:none;stroke:rgb(0,0,0);stroke-width:1;stroke-linecap:round"></path><path d="M-212.592616122249,-51.955833419340784L-212.592616122249,24.542429256151582L-125.20619403223199,-39.7168575931446zM-212.592616122249,24.542429256151582L-125.20619403223199,36.781405082347774L-125.20619403223199,-39.7168575931446z" style="fill:rgb(238,238,238); fill-opacity: 0.4"></path><path d="M-125.20619403223202,-39.716857593144596L-125.20619403223202,36.781405082347774M-79.04909330389323,18.308035784054407L27.11572905737116,33.17703560571395" style="fill:none;stroke:rgb(0,0,0);stroke-width:1;stroke-linecap:round"></path><path d="M29.318765159185062,36.80664542234657L-76.84605720207932,21.937645600687027L-76.84605720207932,16.21077522064525zM-79.04909330389323,24.034906164096192L-76.84605720207932,21.937645600687027L29.318765159185062,36.80664542234657z" style="fill:rgb(153,221,255); fill-opacity: 0.4"></path><path d="M-84.30290862614845,-30.04990934476532L-84.30290862614845,32.86619536286331M-84.30290862614845,32.86619536286331L21.86191373511594,47.735195184522844" style="fill:none;stroke:rgb(0,0,0);stroke-width:1;stroke-linecap:round"></path><path d="M-79.04909330389323,18.30803578405441L27.115729057371155,33.177035605713954L-76.84605720207932,16.21077522064525z" style="fill:rgb(153,221,255); fill-opacity: 0.4"></path><path d="M195.5996115519037,41.592120647089985L81.67198752327218,25.635895376920907M81.67198752327218,-23.32788076700267L81.67198752327218,25.635895376920907M81.67198752327218,25.635895376920907L62.83640030584137,43.56711957576441" style="fill:none;stroke:rgb(0,0,0);stroke-width:1;stroke-linecap:round"></path><path d="M-79.04909330389323,18.30803578405441L-79.04909330389323,24.034906164096192L27.115729057371155,33.177035605713954z" style="fill:rgb(153,221,255); fill-opacity: 0.4"></path><path d="M46.06474021071683,-38.22167288078253L21.86191373511594,-15.180909523105777" style="fill:none;stroke:rgb(0,0,0);stroke-width:1;stroke-linecap:round"></path><path d="M21.861913735115937,47.73519518452285L-84.30290862614845,32.8661953628633L46.06474021071682,24.694431826846095zM21.861913735115937,47.73519518452285L46.06474021071682,24.694431826846095L46.06474021071682,-38.221672880782535z" style="fill:rgb(238,238,238); fill-opacity: 0.4"></path><path d="M29.318765159185062,31.07977504230479L29.318765159185062,36.80664542234657L-76.84605720207932,16.21077522064525z" style="fill:rgb(153,221,255); fill-opacity: 0.4"></path><path d="M21.861913735115937,-15.180909523105777L46.06474021071682,-38.221672880782535L-60.100082150547564,-53.090672702442085z" style="fill:rgb(238,238,238); fill-opacity: 0.4"></path><path d="M27.115729057371155,38.903905985755735L-79.04909330389323,24.034906164096192L29.318765159185062,36.80664542234657zM27.115729057371155,33.177035605713954L29.318765159185062,31.07977504230479L-76.84605720207932,16.21077522064525zM-79.04909330389323,24.034906164096192L27.115729057371155,38.903905985755735L27.115729057371155,33.177035605713954z" style="fill:rgb(153,221,255); fill-opacity: 0.4"></path><path d="M192.03144756988976,30.348576574340825L78.10382354125821,14.392351304171745M78.10382354125821,8.665480924129966L78.10382354125821,14.392351304171745M78.10382354125821,14.392351304171745L75.9007874394443,16.489611867580905" style="fill:none;stroke:rgb(0,0,0);stroke-width:1;stroke-linecap:round"></path><path d="M-84.30290862614845,-30.049909344765325L21.861913735115937,-15.180909523105777L-60.100082150547564,-53.090672702442085z" style="fill:rgb(238,238,238); fill-opacity: 0.4"></path><path d="M192.03144756988976,24.62170619429904L78.10382354125821,8.665480924129966M78.10382354125821,8.665480924129966L75.9007874394443,10.762741487539126" style="fill:none;stroke:rgb(0,0,0);stroke-width:1;stroke-linecap:round"></path><path d="M78.1038235412582,8.665480924129964L78.1038235412582,14.392351304171743L75.90078743944429,10.762741487539126zM78.1038235412582,14.392351304171743L75.90078743944429,16.489611867580905L75.90078743944429,10.762741487539126z" style="fill:rgb(153,221,255); fill-opacity: 0.4"></path><path d="M195.5996115519037,-7.371655496833587L81.67198752327218,-23.32788076700267M81.67198752327218,-23.32788076700267L62.83640030584137,-5.39665656815917M29.318763739932848,31.07977400574097L29.318763739932848,36.80664438578275M29.318763739932848,36.80664438578275L27.11572728795578,38.9039052825425M29.318763739932848,36.80664438578275L67.78237020747218,33.649743352706764M29.318765159185066,31.07977504230479L29.318765159185066,36.80664542234657M29.318765159185066,36.80664542234657L27.11572905737116,38.90390598575573M75.9007874394443,10.762741487539126L75.9007874394443,16.489611867580905M75.9007874394443,16.489611867580905L189.82841146807584,32.44583713774998" style="fill:none;stroke:rgb(0,0,0);stroke-width:1;stroke-linecap:round"></path><path d="M195.5996115519037,41.59212064708998L81.67198752327216,25.635895376920907L81.67198752327216,-23.32788076700267z" style="fill:rgb(238,238,238); fill-opacity: 0.4"></path><path d="M29.318763739932848,31.07977400574097L27.11572728795578,33.177034902500715M29.318763739932848,31.07977400574097L67.78237020747218,33.649743352706764M29.318765159185066,31.07977504230479L27.11572905737116,33.17703560571395" style="fill:none;stroke:rgb(0,0,0);stroke-width:1;stroke-linecap:round"></path><path d="M29.318765013323336,31.07977502187601L29.318765013323336,36.80664540191779L27.11572891150943,38.903905965326956z" style="fill:rgb(255,187,187); fill-opacity: 0.4"></path><path d="M27.115729057371155,38.903905985755735L29.318765159185062,36.80664542234657L29.318765159185062,31.07977504230479z" style="fill:rgb(153,221,255); fill-opacity: 0.4"></path><path d="M75.9007874394443,10.762741487539126L189.82841146807584,26.718966757708206M-84.30290862614845,-30.04990934476532L21.86191373511594,-15.180909523105777" style="fill:none;stroke:rgb(0,0,0);stroke-width:1;stroke-linecap:round"></path><path d="M29.318765013323336,31.07977502187601L27.11572891150943,38.903905965326956L27.11572891150943,33.177035585285175z" style="fill:rgb(255,187,187); fill-opacity: 0.4"></path><path d="M27.115729057371155,33.177035605713954L27.115729057371155,38.903905985755735L29.318765159185062,31.07977504230479z" style="fill:rgb(153,221,255); fill-opacity: 0.4"></path><path d="M27.11572905737116,33.17703560571395L27.11572905737116,38.90390598575573M27.11572728795578,38.9039052825425L27.11572728795578,33.177034902500715M27.11572728795578,38.9039052825425L67.78237020747218,33.649743352706764" style="fill:none;stroke:rgb(0,0,0);stroke-width:1;stroke-linecap:round"></path><path d="M29.318765013323336,36.80664540191779L29.318765013323336,31.07977502187601L67.78236796344753,33.64974235628872zM27.11572891150943,38.903905965326956L29.318765013323336,36.80664540191779L67.78236796344753,33.64974235628872z" style="fill:rgb(255,187,187); fill-opacity: 0.4"></path><path d="M27.11572728795578,33.177034902500715L67.78237020747218,33.649743352706764" style="fill:none;stroke:rgb(0,0,0);stroke-width:1;stroke-linecap:round"></path><path d="M-84.30290862614845,-30.049909344765325L-84.30290862614845,32.8661953628633L21.861913735115937,-15.180909523105777z" style="fill:rgb(238,238,238); fill-opacity: 0.4"></path><path d="M29.318765013323336,31.07977502187601L27.11572891150943,33.177035585285175L67.78236796344753,33.64974235628872z" style="fill:rgb(255,187,187); fill-opacity: 0.4"></path><path d="M81.67198752327216,-23.32788076700267L81.67198752327216,25.635895376920907L62.836400305841366,-5.39665656815917z" style="fill:rgb(238,238,238); fill-opacity: 0.4"></path><path d="M192.03144756988974,30.348576574340818L78.1038235412582,14.392351304171743L78.1038235412582,8.665480924129964z" style="fill:rgb(153,221,255); fill-opacity: 0.4"></path><path d="M62.836400305841366,43.567119575764394L81.67198752327216,25.635895376920907L195.5996115519037,41.59212064708998z" style="fill:rgb(238,238,238); fill-opacity: 0.4"></path><path d="M27.11572891150943,33.177035585285175L27.11572891150943,38.903905965326956L67.78236796344753,33.64974235628872z" style="fill:rgb(255,187,187); fill-opacity: 0.4"></path><path d="M75.90078743944429,16.489611867580905L78.1038235412582,14.392351304171743L192.03144756988974,30.348576574340818z" style="fill:rgb(153,221,255); fill-opacity: 0.4"></path><path d="M-84.30290862614845,32.8661953628633L21.861913735115937,47.73519518452285L21.861913735115937,-15.180909523105777zM21.861913735115937,-15.180909523105777L21.861913735115937,47.73519518452285L46.06474021071682,-38.221672880782535z" style="fill:rgb(238,238,238); fill-opacity: 0.4"></path><path d="M75.90078743944429,10.762741487539126L189.82841146807584,26.718966757708206L78.1038235412582,8.665480924129964zM75.90078743944429,10.762741487539126L75.90078743944429,16.489611867580905L189.82841146807584,26.718966757708206z" style="fill:rgb(153,221,255); fill-opacity: 0.4"></path><path d="M21.86191373511594,-15.180909523105777L21.86191373511594,47.735195184522844" style="fill:none;stroke:rgb(0,0,0);stroke-width:1;stroke-linecap:round"></path><path d="M81.67198752327216,25.635895376920907L62.836400305841366,43.567119575764394L62.836400305841366,-5.39665656815917zM195.5996115519037,-7.37165549683359L195.5996115519037,41.59212064708998L81.67198752327216,-23.32788076700267z" style="fill:rgb(238,238,238); fill-opacity: 0.4"></path><path d="M195.5996115519037,-7.371655496833587L195.5996115519037,41.592120647089985M195.5996115519037,41.592120647089985L176.76402433447294,59.52334484593349" style="fill:none;stroke:rgb(0,0,0);stroke-width:1;stroke-linecap:round"></path><path d="M192.03144756988974,24.62170619429904L192.03144756988974,30.348576574340818L78.1038235412582,8.665480924129964zM189.82841146807584,32.44583713774998L75.90078743944429,16.489611867580905L192.03144756988974,30.348576574340818zM189.82841146807584,26.718966757708206L192.03144756988974,24.62170619429904L78.1038235412582,8.665480924129964z" style="fill:rgb(153,221,255); fill-opacity: 0.4"></path><path d="M62.83640030584137,-5.39665656815917L62.83640030584137,43.56711957576441M62.83640030584137,43.56711957576441L176.76402433447294,59.52334484593349" style="fill:none;stroke:rgb(0,0,0);stroke-width:1;stroke-linecap:round"></path><path d="M75.90078743944429,16.489611867580905L189.82841146807584,32.44583713774998L189.82841146807584,26.718966757708206z" style="fill:rgb(153,221,255); fill-opacity: 0.4"></path><path d="M347.81810417639304,62.91120440145252L233.89048014776154,46.95497913128344M233.89048014776154,-2.0087970126401333L233.89048014776154,46.95497913128344M233.89048014776154,46.95497913128344L215.0548929303307,64.88620333012693M192.03144756988976,24.62170619429904L192.03144756988976,30.348576574340825M192.03144756988976,30.348576574340825L189.82841146807584,32.44583713774998M192.03145560764102,24.621707254226042L192.03145560764102,30.34857763426782M192.03145560764102,30.34857763426782L189.82841950582713,32.445838197676984M192.03145560764102,30.34857763426782L229.22080313588054,33.89663078763704M192.03144756988976,24.62170619429904L189.82841146807584,26.718966757708206M192.03145560764102,24.621707254226042L189.82841950582713,26.718967817635203M192.03145560764102,24.621707254226042L229.22080313588054,33.89663078763704" style="fill:none;stroke:rgb(0,0,0);stroke-width:1;stroke-linecap:round"></path><path d="M176.7640243344729,59.52334484593348L62.836400305841366,43.567119575764394L195.5996115519037,41.59212064708998z" style="fill:rgb(238,238,238); fill-opacity: 0.4"></path><path d="M189.82841146807584,32.44583713774998L192.03144756988974,30.348576574340818L192.03144756988974,24.62170619429904z" style="fill:rgb(153,221,255); fill-opacity: 0.4"></path><path d="M192.0314490782454,24.621706405553006L192.0314490782454,30.348576785594783L189.82841297643148,32.445837349003945z" style="fill:rgb(255,187,187); fill-opacity: 0.4"></path><path d="M195.5996115519037,-7.371655496833587L176.76402433447294,10.559568702009908" style="fill:none;stroke:rgb(0,0,0);stroke-width:1;stroke-linecap:round"></path><path d="M189.82841146807584,26.718966757708206L189.82841146807584,32.44583713774998L192.03144756988974,24.62170619429904z" style="fill:rgb(153,221,255); fill-opacity: 0.4"></path><path d="M192.0314490782454,24.621706405553006L189.82841297643148,32.445837349003945L189.82841297643148,26.71896696896217z" style="fill:rgb(255,187,187); fill-opacity: 0.4"></path><path d="M189.82841146807584,26.718966757708206L189.82841146807584,32.44583713774998M189.82841950582713,32.445838197676984L189.82841950582713,26.718967817635203M189.82841950582713,32.445838197676984L229.22080313588054,33.89663078763704" style="fill:none;stroke:rgb(0,0,0);stroke-width:1;stroke-linecap:round"></path><path d="M176.7640243344729,10.559568702009908L195.5996115519037,-7.37165549683359L81.67198752327216,-23.32788076700267z" style="fill:rgb(238,238,238); fill-opacity: 0.4"></path><path d="M192.0314490782454,30.348576785594783L192.0314490782454,24.621706405553006L229.22079660648492,33.896629938964004z" style="fill:rgb(255,187,187); fill-opacity: 0.4"></path><path d="M176.7640243344729,59.52334484593348L195.5996115519037,41.59212064708998L195.5996115519037,-7.37165549683359z" style="fill:rgb(238,238,238); fill-opacity: 0.4"></path><path d="M189.82841950582713,26.718967817635203L229.22080313588054,33.89663078763704" style="fill:none;stroke:rgb(0,0,0);stroke-width:1;stroke-linecap:round"></path><path d="M189.82841297643148,32.445837349003945L192.0314490782454,30.348576785594783L229.22079660648492,33.896629938964004z" style="fill:rgb(255,187,187); fill-opacity: 0.4"></path><path d="M62.836400305841366,-5.39665656815917L176.7640243344729,10.559568702009908L81.67198752327216,-23.32788076700267z" style="fill:rgb(238,238,238); fill-opacity: 0.4"></path><path d="M192.0314490782454,24.621706405553006L189.82841297643148,26.71896696896217L229.22079660648492,33.896629938964004z" style="fill:rgb(255,187,187); fill-opacity: 0.4"></path><path d="M62.83640030584137,-5.39665656815917L176.76402433447294,10.559568702009908" style="fill:none;stroke:rgb(0,0,0);stroke-width:1;stroke-linecap:round"></path><path d="M189.82841297643148,26.71896696896217L189.82841297643148,32.445837349003945L229.22079660648492,33.896629938964004z" style="fill:rgb(255,187,187); fill-opacity: 0.4"></path><path d="M62.836400305841366,-5.39665656815917L62.836400305841366,43.567119575764394L176.7640243344729,10.559568702009908z" style="fill:rgb(238,238,238); fill-opacity: 0.4"></path><path d="M347.81810417639304,13.94742825752895L233.89048014776154,-2.0087970126401333M233.89048014776154,-2.0087970126401333L215.0548929303307,15.922427186203366" style="fill:none;stroke:rgb(0,0,0);stroke-width:1;stroke-linecap:round"></path><path d="M347.81810417639304,62.91120440145252L233.89048014776148,46.954979131283444L233.89048014776148,-2.0087970126401267zM62.836400305841366,43.567119575764394L176.7640243344729,59.52334484593348L176.7640243344729,10.559568702009908zM233.89048014776148,-2.0087970126401267L233.89048014776148,46.954979131283444L215.05489293033065,15.922427186203372zM215.05489293033065,64.88620333012693L233.89048014776148,46.954979131283444L347.81810417639304,62.91120440145252zM176.7640243344729,10.559568702009908L176.7640243344729,59.52334484593348L195.5996115519037,-7.37165549683359z" style="fill:rgb(238,238,238); fill-opacity: 0.4"></path><path d="M176.76402433447294,10.559568702009908L176.76402433447294,59.52334484593349" style="fill:none;stroke:rgb(0,0,0);stroke-width:1;stroke-linecap:round"></path><path d="M233.89048014776148,46.954979131283444L215.05489293033065,64.88620333012693L215.05489293033065,15.922427186203372z" style="fill:rgb(238,238,238); fill-opacity: 0.4"></path><path d="M333.03356875382804,74.41757882030603L219.10594472519645,58.46135355013695M219.10594472519645,52.73448317009517L219.10594472519645,58.46135355013695M219.10594472519645,58.46135355013695L216.90290862338253,60.55861411354611M333.03356875382804,68.69070844026425L219.10594472519645,52.73448317009517M219.10594472519645,52.73448317009517L216.90290862338253,54.831743733504325" style="fill:none;stroke:rgb(0,0,0);stroke-width:1;stroke-linecap:round"></path><path d="M347.81810417639304,13.947428257528951L347.81810417639304,62.91120440145252L233.89048014776148,-2.0087970126401267z" style="fill:rgb(238,238,238); fill-opacity: 0.4"></path><path d="M219.10594472519645,52.73448317009517L219.10594472519645,58.461353550136955L216.90290862338253,54.83174373350433z" style="fill:rgb(153,221,255); fill-opacity: 0.4"></path><path d="M347.81810417639304,13.94742825752895L347.81810417639304,62.91120440145252M347.81810417639304,62.91120440145252L328.9825169589622,80.84242860029602" style="fill:none;stroke:rgb(0,0,0);stroke-width:1;stroke-linecap:round"></path><path d="M219.10594472519645,58.461353550136955L216.90290862338253,60.55861411354611L216.90290862338253,54.83174373350433z" style="fill:rgb(153,221,255); fill-opacity: 0.4"></path><path d="M216.90290862338253,54.831743733504325L216.90290862338253,60.55861411354611M216.90290862338253,60.55861411354611L330.8305326520141,76.51483938371518M216.90290862338253,54.831743733504325L330.8305326520141,70.78796900367341M215.0548929303307,15.922427186203366L215.0548929303307,64.88620333012693M215.0548929303307,64.88620333012693L328.9825169589622,80.84242860029602" style="fill:none;stroke:rgb(0,0,0);stroke-width:1;stroke-linecap:round"></path><path d="M333.03356875382804,74.41757882030603L219.10594472519645,58.461353550136955L219.10594472519645,52.73448317009517zM216.90290862338253,60.55861411354611L219.10594472519645,58.461353550136955L333.03356875382804,74.41757882030603z" style="fill:rgb(153,221,255); fill-opacity: 0.4"></path><path d="M492.27379347929775,83.14306247562277L386.1089711180334,68.27406265396323M386.1089711180334,19.310286510039656L386.1089711180334,68.27406265396323M386.1089711180334,68.27406265396323L367.27338390060265,86.20528685280672" style="fill:none;stroke:rgb(0,0,0);stroke-width:1;stroke-linecap:round"></path><path d="M216.90290862338253,54.83174373350433L330.8305326520141,70.78796900367341L219.10594472519645,52.73448317009517zM216.90290862338253,54.83174373350433L216.90290862338253,60.55861411354611L330.8305326520141,70.78796900367341z" style="fill:rgb(153,221,255); fill-opacity: 0.4"></path><path d="M328.9825169589622,80.84242860029602L215.05489293033065,64.88620333012693L347.81810417639304,62.91120440145252z" style="fill:rgb(238,238,238); fill-opacity: 0.4"></path><path d="M347.81810417639304,13.94742825752895L328.9825169589622,31.878652456372446" style="fill:none;stroke:rgb(0,0,0);stroke-width:1;stroke-linecap:round"></path><path d="M328.9825169589622,31.87865245637245L347.81810417639304,13.947428257528951L233.89048014776148,-2.0087970126401267zM328.9825169589622,80.84242860029602L347.81810417639304,62.91120440145252L347.81810417639304,13.947428257528951zM215.05489293033065,15.922427186203372L328.9825169589622,31.87865245637245L233.89048014776148,-2.0087970126401267z" style="fill:rgb(238,238,238); fill-opacity: 0.4"></path><path d="M215.0548929303307,15.922427186203366L328.9825169589622,31.878652456372446" style="fill:none;stroke:rgb(0,0,0);stroke-width:1;stroke-linecap:round"></path><path d="M333.03356875382804,68.69070844026426L333.03356875382804,74.41757882030603L219.10594472519645,52.73448317009517zM330.8305326520141,76.51483938371518L216.90290862338253,60.55861411354611L333.03356875382804,74.41757882030603zM330.8305326520141,70.78796900367341L333.03356875382804,68.69070844026426L219.10594472519645,52.73448317009517zM216.90290862338253,60.55861411354611L330.8305326520141,76.51483938371518L330.8305326520141,70.78796900367341z" style="fill:rgb(153,221,255); fill-opacity: 0.4"></path><path d="M215.05489293033065,15.922427186203372L215.05489293033065,64.88620333012693L328.9825169589622,31.87865245637245zM492.27379347929775,83.14306247562277L386.10897111803337,68.27406265396323L386.10897111803337,19.310286510039653z" style="fill:rgb(238,238,238); fill-opacity: 0.4"></path><path d="M492.27379347929775,34.179286331699196L386.1089711180334,19.310286510039656M386.1089711180334,19.310286510039656L367.27338390060265,37.24151070888315M333.03356875382804,68.69070844026425L333.03356875382804,74.41757882030603M333.03356875382804,74.41757882030603L330.8305326520141,76.51483938371518M333.03357391175973,68.69070937774508L333.03357391175973,74.41757975778687M333.03357391175973,74.41757975778687L330.83053745978265,76.51484065454662M333.03357391175973,74.41757975778687L370.2229210898361,77.96563324450666" style="fill:none;stroke:rgb(0,0,0);stroke-width:1;stroke-linecap:round"></path><path d="M215.05489293033065,64.88620333012693L328.9825169589622,80.84242860029602L328.9825169589622,31.87865245637245z" style="fill:rgb(238,238,238); fill-opacity: 0.4"></path><path d="M333.03356875382804,68.69070844026425L330.8305326520141,70.78796900367341M333.03357391175973,68.69070937774508L330.83053745978265,70.78797027450483M333.03357391175973,68.69070937774508L370.2229210898361,77.96563324450666" style="fill:none;stroke:rgb(0,0,0);stroke-width:1;stroke-linecap:round"></path><path d="M330.8305326520141,76.51483938371518L333.03356875382804,74.41757882030603L333.03356875382804,68.69070844026426z" style="fill:rgb(153,221,255); fill-opacity: 0.4"></path><path d="M333.0335702621837,68.69070865151821L333.0335702621837,74.41757903156L330.8305341603698,76.51483959496916z" style="fill:rgb(255,187,187); fill-opacity: 0.4"></path><path d="M367.2733839006026,86.20528685280672L386.10897111803337,68.27406265396323L492.27379347929775,83.14306247562277zM386.10897111803337,19.310286510039653L386.10897111803337,68.27406265396323L367.2733839006026,37.24151070888315z" style="fill:rgb(238,238,238); fill-opacity: 0.4"></path><path d="M330.8305326520141,70.78796900367341L330.8305326520141,76.51483938371518L333.03356875382804,68.69070844026426z" style="fill:rgb(153,221,255); fill-opacity: 0.4"></path><path d="M333.0335702621837,68.69070865151821L330.8305341603698,76.51483959496916L330.8305341603698,70.78796921492737z" style="fill:rgb(255,187,187); fill-opacity: 0.4"></path><path d="M330.8305326520141,70.78796900367341L330.8305326520141,76.51483938371518M330.83053745978265,76.51484065454662L330.83053745978265,70.78797027450483M330.83053745978265,76.51484065454662L370.2229210898361,77.96563324450666" style="fill:none;stroke:rgb(0,0,0);stroke-width:1;stroke-linecap:round"></path><path d="M328.9825169589622,31.87865245637245L328.9825169589622,80.84242860029602L347.81810417639304,13.947428257528951z" style="fill:rgb(238,238,238); fill-opacity: 0.4"></path><path d="M333.0335702621837,74.41757903156L333.0335702621837,68.69070865151821L370.22291779042314,77.9656321849292z" style="fill:rgb(255,187,187); fill-opacity: 0.4"></path><path d="M330.83053745978265,70.78797027450483L370.2229210898361,77.96563324450666" style="fill:none;stroke:rgb(0,0,0);stroke-width:1;stroke-linecap:round"></path><path d="M330.8305341603698,76.51483959496916L333.0335702621837,74.41757903156L370.22291779042314,77.9656321849292z" style="fill:rgb(255,187,187); fill-opacity: 0.4"></path><path d="M328.9825169589622,31.878652456372446L328.9825169589622,80.84242860029602" style="fill:none;stroke:rgb(0,0,0);stroke-width:1;stroke-linecap:round"></path><path d="M333.0335702621837,68.69070865151821L330.8305341603698,70.78796921492737L370.22291779042314,77.9656321849292zM330.8305341603698,70.78796921492737L330.8305341603698,76.51483959496916L370.22291779042314,77.9656321849292z" style="fill:rgb(255,187,187); fill-opacity: 0.4"></path><path d="M386.10897111803337,68.27406265396323L367.2733839006026,86.20528685280672L367.2733839006026,37.24151070888315z" style="fill:rgb(238,238,238); fill-opacity: 0.4"></path><path d="M492.27379347929775,34.179286331699196L492.27379347929775,83.14306247562277M492.27379347929775,83.14306247562277L473.438206261867,101.07428667446628" style="fill:none;stroke:rgb(0,0,0);stroke-width:1;stroke-linecap:round"></path><path d="M492.27379347929775,34.179286331699196L492.27379347929775,83.14306247562277L386.10897111803337,19.310286510039653z" style="fill:rgb(238,238,238); fill-opacity: 0.4"></path><path d="M367.27338390060265,37.24151070888315L367.27338390060265,86.20528685280672M367.27338390060265,86.20528685280672L473.438206261867,101.07428667446628M543.5978165715389,146.13007557075144L530.3272137763809,144.27145059304402M530.3272137763809,-1.2792373716092917L530.3272137763809,144.27145059304402M530.3272137763809,144.27145059304402L525.2371195535806,149.1171514277813" style="fill:none;stroke:rgb(0,0,0);stroke-width:1;stroke-linecap:round"></path><path d="M473.438206261867,101.07428667446628L367.2733839006026,86.20528685280672L492.27379347929775,83.14306247562277z" style="fill:rgb(238,238,238); fill-opacity: 0.4"></path><path d="M543.5978165715389,0.5793876060981478L543.5978165715389,146.13007557075144M543.5978165715389,146.13007557075144L538.5077223487385,150.97577640548874M492.27379347929775,34.179286331699196L473.438206261867,52.1105105305427" style="fill:none;stroke:rgb(0,0,0);stroke-width:1;stroke-linecap:round"></path><path d="M525.2371195535804,149.1171514277813L530.3272137763809,144.27145059304402L543.5978165715389,146.13007557075147zM473.438206261867,101.07428667446628L492.27379347929775,83.14306247562277L492.27379347929775,34.179286331699196zM473.438206261867,52.1105105305427L492.27379347929775,34.179286331699196L386.10897111803337,19.310286510039653zM367.2733839006026,37.24151070888315L473.438206261867,52.1105105305427L386.10897111803337,19.310286510039653zM538.5077223487385,150.97577640548874L525.2371195535804,149.1171514277813L543.5978165715389,146.13007557075147z" style="fill:rgb(238,238,238); fill-opacity: 0.4"></path><path d="M525.2371195535806,3.5664634631279775L525.2371195535806,149.1171514277813M525.2371195535806,149.1171514277813L538.5077223487385,150.97577640548874M367.27338390060265,37.24151070888315L473.438206261867,52.1105105305427M538.5077223487385,5.425088440835417L538.5077223487385,150.97577640548874M595.159284909378,153.35155860503724L581.88868211422,151.49293362732982M581.88868211422,5.942245662676483L581.88868211422,151.49293362732982M581.88868211422,151.49293362732982L576.7985878914196,156.33863446206706" style="fill:none;stroke:rgb(0,0,0);stroke-width:1;stroke-linecap:round"></path><path d="M367.2733839006026,37.24151070888315L367.2733839006026,86.20528685280672L473.438206261867,52.1105105305427zM543.5978165715389,146.13007557075147L530.3272137763809,144.27145059304402L530.3272137763809,-1.2792373716092897z" style="fill:rgb(238,238,238); fill-opacity: 0.4"></path><path d="M491.4058443830242,68.82424187203834L513.1040015445406,71.86319477366014M595.159284909378,7.8008706403839225L595.159284909378,153.35155860503724M595.159284909378,153.35155860503724L590.0691906865777,158.1972594397745" style="fill:none;stroke:rgb(0,0,0);stroke-width:1;stroke-linecap:round"></path><path d="M576.7985878914196,156.3386344620671L581.88868211422,151.49293362732982L595.1592849093781,153.35155860503724zM367.2733839006026,86.20528685280672L473.438206261867,101.07428667446628L473.438206261867,52.1105105305427zM530.3272137763809,144.27145059304402L525.2371195535804,149.1171514277813L525.2371195535804,3.5664634631279797zM538.5077223487385,150.97577640548874L543.5978165715389,146.13007557075147L543.5978165715389,0.5793876060981499zM473.438206261867,52.1105105305427L473.438206261867,101.07428667446628L492.27379347929775,34.179286331699196zM590.0691906865777,158.1972594397745L576.7985878914196,156.3386344620671L595.1592849093781,153.35155860503724z" style="fill:rgb(238,238,238); fill-opacity: 0.4"></path><path d="M576.7985878914196,10.787946497413753L576.7985878914196,156.33863446206706M576.7985878914196,156.33863446206706L590.0691906865777,158.1972594397745" style="fill:none;stroke:rgb(0,0,0);stroke-width:1;stroke-linecap:round"></path><path d="M511.3579916341126,75.00012285195979L513.1040015445406,76.63558675702828L525.867623404256,73.65081412755531z" style="fill:rgb(0,0,0)"></path><path d="M473.438206261867,52.1105105305427L473.438206261867,101.07428667446628" style="fill:none;stroke:rgb(0,0,0);stroke-width:1;stroke-linecap:round"></path><path d="M514.1830949717231,66.97496617281836L512.0249081173579,69.02953085943493L525.867623404256,73.65081412755531zM512.0249081173579,69.02953085943493L511.3579916341126,75.00012285195979L525.867623404256,73.65081412755531z" style="fill:rgb(0,0,0)"></path><path d="M525.2371195535804,149.1171514277813L538.5077223487385,150.97577640548874L538.5077223487385,5.425088440835419z" style="fill:rgb(238,238,238); fill-opacity: 0.4"></path><path d="M590.0691906865777,12.646571475121192L590.0691906865777,158.1972594397745" style="fill:none;stroke:rgb(0,0,0);stroke-width:1;stroke-linecap:round"></path><path d="M595.1592849093781,153.35155860503724L581.88868211422,151.49293362732982L581.88868211422,5.942245662676485z" style="fill:rgb(238,238,238); fill-opacity: 0.4"></path><path d="M646.7207532472171,153.73072949529748L633.4501504520591,151.87210451759003M633.4501504520591,20.006040840987822L633.4501504520591,151.87210451759003M633.4501504520591,151.87210451759003L628.3600562292588,156.71780535232733M542.9673127208633,76.04572490632412L564.6654698823796,79.08467780794592" style="fill:none;stroke:rgb(0,0,0);stroke-width:1;stroke-linecap:round"></path><path d="M543.5978165715389,0.5793876060981499L543.5978165715389,146.13007557075147L530.3272137763809,-1.2792373716092897zM530.3272137763809,-1.2792373716092897L530.3272137763809,144.27145059304402L525.2371195535804,3.5664634631279797z" style="fill:rgb(238,238,238); fill-opacity: 0.4"></path><path d="M646.7207532472171,21.86466581869526L646.7207532472171,153.73072949529748M646.7207532472171,153.73072949529748L641.6306590244168,158.57643033003475" style="fill:none;stroke:rgb(0,0,0);stroke-width:1;stroke-linecap:round"></path><path d="M628.3600562292587,156.71780535232733L633.4501504520591,151.87210451759003L646.7207532472172,153.73072949529748zM581.88868211422,151.49293362732982L576.7985878914196,156.3386344620671L576.7985878914196,10.787946497413754zM590.0691906865777,158.1972594397745L595.1592849093781,153.35155860503724L595.1592849093781,7.800870640383925z" style="fill:rgb(238,238,238); fill-opacity: 0.4"></path><path d="M562.9194599719517,82.22160588624557L564.6654698823796,83.85706979131406L577.4290917420952,80.87229716184109zM565.7445633095622,74.19644920710414L563.5863764551971,76.25101389372071L577.4290917420952,80.87229716184109z" style="fill:rgb(0,0,0)"></path><path d="M641.6306590244168,158.57643033003475L628.3600562292587,156.71780535232733L646.7207532472172,153.73072949529748zM538.5077223487385,5.425088440835419L538.5077223487385,150.97577640548874L543.5978165715389,0.5793876060981499z" style="fill:rgb(238,238,238); fill-opacity: 0.4"></path><path d="M628.3600562292588,24.85174167572509L628.3600562292588,156.71780535232733M628.3600562292588,156.71780535232733L641.6306590244168,158.57643033003475" style="fill:none;stroke:rgb(0,0,0);stroke-width:1;stroke-linecap:round"></path><path d="M525.2371195535804,3.5664634631279797L525.2371195535804,149.1171514277813L538.5077223487385,5.425088440835419z" style="fill:rgb(238,238,238); fill-opacity: 0.4"></path><path d="M563.5863764551971,76.25101389372071L562.9194599719517,82.22160588624557L577.4290917420952,80.87229716184109z" style="fill:rgb(0,0,0)"></path><path d="M576.7985878914196,156.3386344620671L590.0691906865777,158.1972594397745L590.0691906865777,12.646571475121194z" style="fill:rgb(238,238,238); fill-opacity: 0.4"></path><path d="M641.6306590244168,26.710366653432533L641.6306590244168,158.57643033003475M543.5978165715389,0.5793876060981478L530.3272137763809,-1.2792373716092917M530.3272137763809,-1.2792373716092917L525.2371195535806,3.5664634631279775" style="fill:none;stroke:rgb(0,0,0);stroke-width:1;stroke-linecap:round"></path><path d="M646.7207532472172,153.73072949529748L633.4501504520591,151.87210451759003L633.4501504520591,20.006040840987815z" style="fill:rgb(238,238,238); fill-opacity: 0.4"></path><path d="M594.5287810587025,83.2672079406099L616.2269382202188,86.30616084223169" style="fill:none;stroke:rgb(0,0,0);stroke-width:1;stroke-linecap:round"></path><path d="M595.1592849093781,7.800870640383925L595.1592849093781,153.35155860503724L581.88868211422,5.942245662676485zM581.88868211422,5.942245662676485L581.88868211422,151.49293362732982L576.7985878914196,10.787946497413754z" style="fill:rgb(238,238,238); fill-opacity: 0.4"></path><path d="M543.5978165715389,0.5793876060981478L538.5077223487385,5.425088440835417" style="fill:none;stroke:rgb(0,0,0);stroke-width:1;stroke-linecap:round"></path><path d="M538.5077223487385,5.425088440835419L543.5978165715389,0.5793876060981499L530.3272137763809,-1.2792373716092897zM633.4501504520591,151.87210451759003L628.3600562292587,156.71780535232733L628.3600562292587,24.851741675725084zM641.6306590244168,158.57643033003475L646.7207532472172,153.73072949529748L646.7207532472172,21.864665818695254zM525.2371195535804,3.5664634631279797L538.5077223487385,5.425088440835419L530.3272137763809,-1.2792373716092897z" style="fill:rgb(238,238,238); fill-opacity: 0.4"></path><path d="M614.4809283097909,89.44308892053135L616.2269382202188,91.07855282559984L628.9905600799343,88.09378019612689zM617.3060316474014,81.4179322413899L615.1478447930363,83.47249692800648L628.9905600799343,88.09378019612689z" style="fill:rgb(0,0,0)"></path><path d="M525.2371195535806,3.5664634631279775L538.5077223487385,5.425088440835417" style="fill:none;stroke:rgb(0,0,0);stroke-width:1;stroke-linecap:round"></path><path d="M590.0691906865777,12.646571475121194L590.0691906865777,158.1972594397745L595.1592849093781,7.800870640383925zM576.7985878914196,10.787946497413754L576.7985878914196,156.3386344620671L590.0691906865777,12.646571475121194z" style="fill:rgb(238,238,238); fill-opacity: 0.4"></path><path d="M615.1478447930363,83.47249692800648L614.4809283097909,89.44308892053135L628.9905600799343,88.09378019612689z" style="fill:rgb(0,0,0)"></path><path d="M628.3600562292587,156.71780535232733L641.6306590244168,158.57643033003475L641.6306590244168,26.710366653432523z" style="fill:rgb(238,238,238); fill-opacity: 0.4"></path><path d="M595.159284909378,7.8008706403839225L581.88868211422,5.942245662676483M581.88868211422,5.942245662676483L576.7985878914196,10.787946497413753" style="fill:none;stroke:rgb(0,0,0);stroke-width:1;stroke-linecap:round"></path><path d="M646.7207532472172,21.864665818695254L646.7207532472172,153.73072949529748L633.4501504520591,20.006040840987815zM633.4501504520591,20.006040840987815L633.4501504520591,151.87210451759003L628.3600562292587,24.851741675725084z" style="fill:rgb(238,238,238); fill-opacity: 0.4"></path><path d="M595.159284909378,7.8008706403839225L590.0691906865777,12.646571475121192" style="fill:none;stroke:rgb(0,0,0);stroke-width:1;stroke-linecap:round"></path><path d="M590.0691906865777,12.646571475121194L595.1592849093781,7.800870640383925L581.88868211422,5.942245662676485zM576.7985878914196,10.787946497413754L590.0691906865777,12.646571475121194L581.88868211422,5.942245662676485zM641.6306590244168,26.710366653432523L641.6306590244168,158.57643033003475L646.7207532472172,21.864665818695254z" style="fill:rgb(238,238,238); fill-opacity: 0.4"></path><path d="M576.7985878914196,10.787946497413753L590.0691906865777,12.646571475121192" style="fill:none;stroke:rgb(0,0,0);stroke-width:1;stroke-linecap:round"></path><path d="M628.3600562292587,24.851741675725084L628.3600562292587,156.71780535232733L641.6306590244168,26.710366653432523z" style="fill:rgb(238,238,238); fill-opacity: 0.4"></path><path d="M646.7207532472171,21.86466581869526L633.4501504520591,20.006040840987822M633.4501504520591,20.006040840987822L628.3600562292588,24.85174167572509M646.7207532472171,21.86466581869526L641.6306590244168,26.710366653432533" style="fill:none;stroke:rgb(0,0,0);stroke-width:1;stroke-linecap:round"></path><path d="M641.6306590244168,26.710366653432523L646.7207532472172,21.864665818695254L633.4501504520591,20.006040840987815zM628.3600562292587,24.851741675725084L641.6306590244168,26.710366653432523L633.4501504520591,20.006040840987815z" style="fill:rgb(238,238,238); fill-opacity: 0.4"></path><path d="M628.3600562292588,24.85174167572509L641.6306590244168,26.710366653432533" style="fill:none;stroke:rgb(0,0,0);stroke-width:1;stroke-linecap:round"></path></svg>